<svg xmlns="http://www.w3.org/2000/svg" xmlns:xlink="http://www.w3.org/1999/xlink" width="100" height="100" version="1.1" viewBox="0 0 100 100"><title>Artboard Copy 46</title><desc>Created with Sketch.</desc><defs><polygon id="path-1" points="34.775 45 34.775 .351 .599 .351 .599 45"/><polygon id="path-3" points="35.373 .614 0 .614 0 47.27 35.373 47.27 35.373 .614"/></defs><g id="Welcome" fill="none" fill-rule="evenodd" stroke="none" stroke-width="1"><g id="Artboard-Copy-46"><g id="Page-1-Copy" transform="translate(32.000000, 25.000000)"><g id="Group-3" transform="translate(2.000000, 4.386400)"><mask id="mask-2" fill="#fff"><use xlink:href="#path-1"/></mask><path id="Fill-1" fill="#437DBC" d="M17.6871,44.9998 C36.1891,35.2498 34.7491,28.7138 34.7491,28.7138 L34.7491,7.4418 C21.2321,7.4418 17.6871,0.3508 17.6871,0.3508 C17.6871,0.3508 14.1411,7.4418 0.6251,7.4418 L0.6251,28.7138 C0.6251,28.7138 -0.8149,35.2498 17.6871,44.9998" mask="url(#mask-2)"/></g><g id="Group-6" transform="translate(0.000000, 0.386400)"><mask id="mask-4" fill="#fff"><use xlink:href="#path-3"/></mask><path id="Fill-4" fill="#0C1423" d="M1.2242,9.6292 L1.2102,30.4352 C1.2022,30.4862 0.2912,36.6752 17.6872,45.9132 C35.0042,36.7172 34.1762,30.4962 34.1622,30.4352 L34.1492,30.3062 L34.1492,9.6292 C23.5132,9.4662 19.0922,4.9712 17.6872,3.0542 C16.2822,4.9702 11.8602,9.4662 1.2242,9.6292 L1.2242,9.6292 Z M17.6872,47.2702 L17.4082,47.1232 C-0.4318,37.7222 -0.0978,31.0892 0.0252,30.2562 L0.0252,8.4342 L0.6242,8.4342 C13.5572,8.4342 17.1172,1.7402 17.1522,1.6722 L17.6912,0.6132 L18.2242,1.6752 C18.2572,1.7402 21.8162,8.4342 34.7482,8.4342 L35.3482,8.4342 L35.3482,30.2562 C35.4712,31.0882 35.8072,37.7222 17.9662,47.1232 L17.6872,47.2702 Z" mask="url(#mask-4)"/></g><polygon id="Fill-7" fill="#0C1423" points="25.459 42.498 .176 17.214 1.023 16.365 26.307 41.649"/><polygon id="Fill-9" fill="#0C1423" points="32.723 35.233 6.7 9.21 7.547 8.361 33.571 34.384"/></g></g></g></svg>