<svg xmlns="http://www.w3.org/2000/svg" xmlns:xlink="http://www.w3.org/1999/xlink" width="100" height="100" version="1.1" viewBox="0 0 100 100"><title>Artboard Copy 50</title><desc>Created with Sketch.</desc><defs><polygon id="path-1" points="0 44 61.347 44 61.347 .69 0 .69"/></defs><g id="Welcome" fill="none" fill-rule="evenodd" stroke="none" stroke-width="1"><g id="Artboard-Copy-50"><g id="Page-1-Copy" transform="translate(19.000000, 26.000000)"><polygon id="Fill-1" fill="#307CBF" points="43.911 6.082 53.784 44.31 61.347 42.357 51.474 4.129"/><polygon id="Fill-2" fill="#307CBF" points="14.131 4 2.498 4 2.498 43.483 14.131 43.483 25.763 43.483 37.875 43.483 45.702 43.483 45.702 13.305 37.875 13.305 37.875 10.11 25.763 10.11 25.763 4"/><path id="Fill-3" fill="#0C1423" d="M0,41.6854 L12.833,41.6854 L12.833,1.0024 L0,1.0024 L0,41.6854 Z M1.199,40.4854 L11.634,40.4854 L11.634,2.2034 L1.199,2.2034 L1.199,40.4854 Z"/><path id="Fill-4" fill="#0C1423" d="M11.633,41.6854 L24.466,41.6854 L24.466,1.0024 L11.633,1.0024 L11.633,41.6854 Z M12.833,40.4854 L23.268,40.4854 L23.268,2.2034 L12.833,2.2034 L12.833,40.4854 Z"/><path id="Fill-5" fill="#0C1423" d="M50.0076,0.9997 L41.2836,3.2537 L51.4556,42.6437 L60.1806,40.3897 L50.0076,0.9997 Z M42.7466,4.1147 L49.1466,2.4617 L58.7176,39.5287 L52.3166,41.1817 L42.7466,4.1147 Z"/><path id="Fill-6" fill="#0C1423" d="M24.467,40.4854 L35.378,40.4854 L35.378,8.3124 L24.467,8.3124 L24.467,40.4854 Z M23.267,41.6854 L36.577,41.6854 L36.577,7.1124 L23.267,7.1124 L23.267,41.6854 Z"/><path id="Fill-7" fill="#0C1423" d="M36.577,40.4854 L43.206,40.4854 L43.206,11.5084 L36.577,11.5084 L36.577,40.4854 Z M35.378,41.6854 L44.405,41.6854 L44.405,10.3084 L35.378,10.3084 L35.378,41.6854 Z"/><polygon id="Fill-8" fill="#0C1423" points=".599 9.458 12.233 9.458 12.233 8.257 .599 8.257"/><polygon id="Fill-9" fill="#0C1423" points=".599 12.34 12.233 12.34 12.233 11.139 .599 11.139"/><polygon id="Fill-10" fill="#0C1423" points="12.233 9.458 23.867 9.458 23.867 8.258 12.233 8.258"/><polygon id="Fill-11" fill="#0C1423" points="12.233 12.34 23.867 12.34 23.867 11.14 12.233 11.14"/><polygon id="Fill-12" fill="#0C1423" points="24.105 15.222 35.738 15.222 35.738 14.022 24.105 14.022"/><polygon id="Fill-13" fill="#0C1423" points="12.233 15.222 23.867 15.222 23.867 14.022 12.233 14.022"/><g id="Group-22" transform="translate(0.000000, 0.310400)"><path id="Fill-14" fill="#0C1423" d="M29.9219,31.4879 C28.6669,31.4879 27.6459,32.5089 27.6459,33.7639 C27.6459,35.0189 28.6669,36.0399 29.9219,36.0399 C31.1779,36.0399 32.1989,35.0189 32.1989,33.7639 C32.1989,32.5089 31.1779,31.4879 29.9219,31.4879 Z M29.9219,37.2399 C28.0049,37.2399 26.4459,35.6809 26.4459,33.7639 C26.4459,31.8469 28.0049,30.2879 29.9219,30.2879 C31.8389,30.2879 33.3989,31.8469 33.3989,33.7639 C33.3989,35.6809 31.8389,37.2399 29.9219,37.2399 Z"/><mask id="mask-2" fill="#fff"><use xlink:href="#path-1"/></mask><polygon id="Fill-16" fill="#0C1423" points="35.978 37.24 43.806 37.24 43.806 36.04 35.978 36.04" mask="url(#mask-2)"/><polygon id="Fill-18" fill="#0C1423" points="35.978 34.364 43.806 34.364 43.806 33.164 35.978 33.164" mask="url(#mask-2)"/><polygon id="Fill-19" fill="#0C1423" points="48.18 27.244 47.879 26.082 55.442 24.129 55.742 25.291" mask="url(#mask-2)"/><polygon id="Fill-20" fill="#0C1423" points="47.431 24.344 47.13 23.182 54.693 21.229 54.993 22.391" mask="url(#mask-2)"/><polygon id="Fill-21" fill="#0C1423" points="46.682 21.444 46.381 20.282 53.944 18.329 54.244 19.491" mask="url(#mask-2)"/></g></g></g></g></svg>