<svg xmlns="http://www.w3.org/2000/svg" xmlns:xlink="http://www.w3.org/1999/xlink" width="100" height="100" version="1.1" viewBox="0 0 100 100"><title>Artboard Copy 51</title><desc>Created with Sketch.</desc><defs><polygon id="path-1" points=".956 44 29.758 44 29.758 .605 .956 .605 .956 44"/><polygon id="path-3" points="0 57.559 54.714 57.559 54.714 0 0 0"/></defs><g id="Welcome" fill="none" fill-rule="evenodd" stroke="none" stroke-width="1"><g id="Artboard-Copy-51"><g id="Page-1-Copy" transform="translate(23.000000, 19.000000)"><g id="Group-3" transform="translate(14.000000, 13.558600)"><mask id="mask-2" fill="#fff"><use xlink:href="#path-1"/></mask><path id="Fill-1" fill="#307CBF" d="M15.3574,0.6054 C7.4034,0.6054 0.9564,7.0534 0.9564,15.0064 C0.9564,20.7954 4.3794,25.7724 9.3054,28.0614 L9.3054,30.6814 L9.3054,32.6564 L9.3054,41.1804 C9.3054,42.7374 12.0144,44.0004 15.3574,44.0004 C18.6994,44.0004 21.4094,42.7374 21.4094,41.1804 L21.4094,32.6564 L21.4094,30.6814 L21.4094,28.0614 C26.3354,25.7724 29.7584,20.7954 29.7584,15.0064 C29.7584,7.0534 23.3104,0.6054 15.3574,0.6054" mask="url(#mask-2)"/></g><path id="Fill-4" fill="#0C1423" d="M34.0088,43.8818 L32.8098,43.8818 L32.8098,38.9028 L33.1558,38.7418 C38.0178,36.4848 41.1588,31.5738 41.1588,26.2318 C41.1588,18.6218 34.9678,12.4308 27.3578,12.4308 C19.7468,12.4308 13.5558,18.6218 13.5558,26.2318 C13.5558,31.5738 16.6968,36.4848 21.5588,38.7418 L21.9048,38.9028 L21.9048,43.8818 L20.7058,43.8818 L20.7058,39.6638 C15.6208,37.1408 12.3568,31.9108 12.3568,26.2318 C12.3568,17.9598 19.0858,11.2308 27.3578,11.2308 C35.6288,11.2308 42.3588,17.9598 42.3588,26.2318 C42.3588,31.9108 39.0938,37.1408 34.0088,39.6638 L34.0088,43.8818 Z"/><path id="Fill-6" fill="#0C1423" d="M27.3574,41.663 C24.2374,41.663 21.9054,42.834 21.9054,43.882 C21.9054,44.93 24.2374,46.101 27.3574,46.101 C30.4774,46.101 32.8094,44.93 32.8094,43.882 C32.8094,42.834 30.4774,41.663 27.3574,41.663 M27.3574,47.301 C23.5654,47.301 20.7064,45.831 20.7064,43.882 C20.7064,41.933 23.5654,40.463 27.3574,40.463 C31.1494,40.463 34.0084,41.933 34.0084,43.882 C34.0084,45.831 31.1494,47.301 27.3574,47.301"/><path id="Fill-8" fill="#0C1423" d="M27.3574,50.1425 C23.5654,50.1425 20.7064,48.6725 20.7064,46.7235 L21.9054,46.7235 C21.9054,47.7705 24.2374,48.9425 27.3574,48.9425 C30.4774,48.9425 32.8094,47.7705 32.8094,46.7235 L34.0084,46.7235 C34.0084,48.6725 31.1494,50.1425 27.3574,50.1425"/><path id="Fill-10" fill="#0C1423" d="M27.3574,52.9838 C23.5654,52.9838 20.7064,51.5138 20.7064,49.5648 L21.9054,49.5648 C21.9054,50.6118 24.2374,51.7838 27.3574,51.7838 C30.4774,51.7838 32.8094,50.6118 32.8094,49.5648 L34.0084,49.5648 C34.0084,51.5138 31.1494,52.9838 27.3574,52.9838"/><path id="Fill-12" fill="#0C1423" d="M27.3574,55.8256 C23.5654,55.8256 20.7064,54.3556 20.7064,52.4066 L21.9054,52.4066 C21.9054,53.4536 24.2374,54.6256 27.3574,54.6256 C30.4774,54.6256 32.8094,53.4536 32.8094,52.4066 L34.0084,52.4066 C34.0084,54.3556 31.1494,55.8256 27.3574,55.8256"/><mask id="mask-4" fill="#fff"><use xlink:href="#path-3"/></mask><polygon id="Fill-14" fill="#0C1423" points="20.706 52.407 21.905 52.407 21.905 43.883 20.706 43.883" mask="url(#mask-4)"/><polygon id="Fill-16" fill="#0C1423" points="32.81 52.407 34.009 52.407 34.009 43.883 32.81 43.883" mask="url(#mask-4)"/><path id="Fill-17" fill="#0C1423" d="M22.542,29.8618 C21.51,29.8618 20.669,30.7018 20.669,31.7348 C20.669,32.7668 21.51,33.6068 22.542,33.6068 C23.574,33.6068 24.414,32.7668 24.414,31.7348 C24.414,30.7018 23.574,29.8618 22.542,29.8618 M22.542,34.8068 C20.848,34.8068 19.47,33.4278 19.47,31.7348 C19.47,30.0398 20.848,28.6618 22.542,28.6618 C24.235,28.6618 25.613,30.0398 25.613,31.7348 C25.613,33.4278 24.235,34.8068 22.542,34.8068" mask="url(#mask-4)"/><path id="Fill-18" fill="#0C1423" d="M27.4863,29.8618 C26.4543,29.8618 25.6133,30.7018 25.6133,31.7348 C25.6133,32.7668 26.4543,33.6068 27.4863,33.6068 C28.5183,33.6068 29.3583,32.7668 29.3583,31.7348 C29.3583,30.7018 28.5183,29.8618 27.4863,29.8618 M27.4863,34.8068 C25.7923,34.8068 24.4143,33.4278 24.4143,31.7348 C24.4143,30.0398 25.7923,28.6618 27.4863,28.6618 C29.1793,28.6618 30.5573,30.0398 30.5573,31.7348 C30.5573,33.4278 29.1793,34.8068 27.4863,34.8068" mask="url(#mask-4)"/><path id="Fill-19" fill="#0C1423" d="M32.4307,29.8618 C31.3987,29.8618 30.5577,30.7018 30.5577,31.7348 C30.5577,32.7668 31.3987,33.6068 32.4307,33.6068 C33.4627,33.6068 34.3037,32.7668 34.3037,31.7348 C34.3037,30.7018 33.4627,29.8618 32.4307,29.8618 M32.4307,34.8068 C30.7367,34.8068 29.3587,33.4278 29.3587,31.7348 C29.3587,30.0398 30.7367,28.6618 32.4307,28.6618 C34.1247,28.6618 35.5027,30.0398 35.5027,31.7348 C35.5027,33.4278 34.1247,34.8068 32.4307,34.8068" mask="url(#mask-4)"/><polygon id="Fill-20" fill="#0C1423" points="26.82 44.149 22.005 34.474 23.079 33.939 27.894 43.614" mask="url(#mask-4)"/><polygon id="Fill-21" fill="#0C1423" points="27.889 44.161 26.827 43.603 31.9 33.928 32.962 34.486" mask="url(#mask-4)"/><polygon id="Fill-22" fill="#0C1423" points="26.887 43.882 28.086 43.882 28.086 34.207 26.887 34.207" mask="url(#mask-4)"/><polygon id="Fill-23" fill="#0C1423" points="26.758 9.312 27.957 9.312 27.957 0 26.758 0" mask="url(#mask-4)"/><polygon id="Fill-24" fill="#0C1423" points="46.277 47.125 39.711 40.559 40.558 39.71 47.125 46.276" mask="url(#mask-4)"/><polygon id="Fill-25" fill="#0C1423" points="14.172 15.02 7.589 8.437 8.437 7.588 15.02 14.171" mask="url(#mask-4)"/><polygon id="Fill-26" fill="#0C1423" points="40.552 15.025 39.704 14.176 46.292 7.588 47.14 8.437" mask="url(#mask-4)"/><polygon id="Fill-27" fill="#0C1423" points="8.451 47.125 7.603 46.276 14.163 39.718 15.011 40.566" mask="url(#mask-4)"/><polygon id="Fill-28" fill="#0C1423" points="45.418 27.957 54.714 27.957 54.714 26.757 45.418 26.757" mask="url(#mask-4)"/><polygon id="Fill-29" fill="#0C1423" points="0 27.957 9.297 27.957 9.297 26.757 0 26.757" mask="url(#mask-4)"/></g></g></g></svg>