<svg xmlns="http://www.w3.org/2000/svg" xmlns:xlink="http://www.w3.org/1999/xlink" width="100" height="100" version="1.1" viewBox="0 0 100 100"><title>Artboard Copy 53</title><desc>Created with Sketch.</desc><g id="Welcome" fill="none" fill-rule="evenodd" stroke="none" stroke-width="1"><g id="Artboard-Copy-53"><g id="Page-1-Copy" transform="translate(11.000000, 27.000000)"><polygon id="Fill-1" fill="#307CBF" points="46.422 12.758 34.449 12.758 34.321 12.758 25.521 12.758 25.521 21.448 17.881 21.448 10.24 21.448 2.599 21.448 2.599 27.032 2.599 42.647 10.24 42.647 17.881 42.647 25.521 42.647 34.449 42.647 37.552 42.647 43.328 42.647 46.422 42.647 55.35 42.647 62.99 42.647 70.631 42.647 78.271 42.647 78.271 21.448 70.631 21.448 62.99 21.448 55.35 21.448 55.35 12.758"/><polygon id="Fill-2" fill="#3A6AA4" points="40.436 6.607 46.422 6.607 46.422 2.933 40.436 2.933"/><path id="Fill-3" fill="#0C1423" d="M32.92,24.0994 L43.822,24.0994 L43.822,11.0254 L32.92,11.0254 L32.92,24.0994 Z M31.72,25.2994 L45.021,25.2994 L45.021,9.8254 L31.72,9.8254 L31.72,25.2994 Z"/><path id="Fill-4" fill="#0C1423" d="M33.049,39.7134 L43.822,39.7134 L43.822,25.2984 L33.049,25.2984 L33.049,39.7134 Z M31.849,40.9144 L45.021,40.9144 L45.021,24.0994 L31.849,24.0994 L31.849,40.9144 Z"/><polygon id="Fill-5" fill="#0C1423" points="37.836 21.864 39.035 21.864 39.035 18.261 37.836 18.261"/><polygon id="Fill-6" fill="#0C1423" points="31.85 24.699 33.049 24.699 33.049 10.425 31.85 10.425"/><polygon id="Fill-7" fill="#0C1423" points="32.828 15.763 32.07 14.832 38.057 9.96 38.814 10.891"/><polygon id="Fill-8" fill="#0C1423" points="43.978 15.763 37.992 10.891 38.749 9.96 44.736 14.832"/><path id="Fill-9" fill="#0C1423" d="M24.121,24.0994 L31.85,24.0994 L31.85,11.0254 L24.121,11.0254 L24.121,24.0994 Z M22.922,25.2994 L33.049,25.2994 L33.049,9.8254 L22.922,9.8254 L22.922,25.2994 Z"/><path id="Fill-10" fill="#0C1423" d="M24.121,39.7134 L31.85,39.7134 L31.85,25.2984 L24.121,25.2984 L24.121,39.7134 Z M22.922,40.9144 L33.049,40.9144 L33.049,24.0994 L22.922,24.0994 L22.922,40.9144 Z"/><path id="Fill-11" fill="#0C1423" d="M16.48,39.7134 L22.921,39.7134 L22.921,25.2984 L16.48,25.2984 L16.48,39.7134 Z M15.281,40.9144 L24.121,40.9144 L24.121,24.0994 L15.281,24.0994 L15.281,40.9144 Z"/><path id="Fill-12" fill="#0C1423" d="M8.84,39.7134 L15.281,39.7134 L15.281,25.2984 L8.84,25.2984 L8.84,39.7134 Z M7.64,40.9144 L16.48,40.9144 L16.48,24.0994 L7.64,24.0994 L7.64,40.9144 Z"/><path id="Fill-13" fill="#0C1423" d="M0,40.9144 L8.84,40.9144 L8.84,24.0994 L0,24.0994 L0,40.9144 Z M1.199,39.7144 L7.641,39.7144 L7.641,25.2994 L1.199,25.2994 L1.199,39.7144 Z"/><polygon id="Fill-14" fill="#0C1423" points="27.386 32.671 28.585 32.671 28.585 29.069 27.386 29.069"/><polygon id="Fill-15" fill="#0C1423" points="27.386 37.498 28.585 37.498 28.585 33.895 27.386 33.895"/><polygon id="Fill-16" fill="#0C1423" points="27.386 21.864 28.585 21.864 28.585 18.261 27.386 18.261"/><polygon id="Fill-17" fill="#0C1423" points="19.102 32.671 20.301 32.671 20.301 29.069 19.102 29.069"/><polygon id="Fill-18" fill="#0C1423" points="19.102 37.498 20.301 37.498 20.301 33.895 19.102 33.895"/><polygon id="Fill-19" fill="#0C1423" points="11.461 32.671 12.66 32.671 12.66 29.069 11.461 29.069"/><polygon id="Fill-20" fill="#0C1423" points="11.461 37.498 12.66 37.498 12.66 33.895 11.461 33.895"/><polygon id="Fill-21" fill="#0C1423" points="3.821 32.671 5.02 32.671 5.02 29.069 3.821 29.069"/><polygon id="Fill-22" fill="#0C1423" points="3.821 37.498 5.02 37.498 5.02 33.895 3.821 33.895"/><path id="Fill-23" fill="#0C1423" d="M0,25.2994 L8.84,25.2994 L8.84,18.5164 L0,18.5164 L0,25.2994 Z M1.199,24.0994 L7.641,24.0994 L7.641,19.7154 L1.199,19.7154 L1.199,24.0994 Z"/><path id="Fill-24" fill="#0C1423" d="M8.84,24.0994 L15.281,24.0994 L15.281,19.7164 L8.84,19.7164 L8.84,24.0994 Z M7.64,25.2994 L16.48,25.2994 L16.48,18.5154 L7.64,18.5154 L7.64,25.2994 Z"/><path id="Fill-25" fill="#0C1423" d="M16.48,24.0994 L22.921,24.0994 L22.921,19.7164 L16.48,19.7164 L16.48,24.0994 Z M15.281,25.2994 L24.121,25.2994 L24.121,18.5154 L15.281,18.5154 L15.281,25.2994 Z"/><polygon id="Fill-26" fill="#0C1423" points="23.521 15.897 32.449 15.897 32.449 14.697 23.521 14.697"/><path id="Fill-27" fill="#0C1423" d="M45.021,24.0994 L52.75,24.0994 L52.75,11.0254 L45.021,11.0254 L45.021,24.0994 Z M43.822,25.2994 L53.949,25.2994 L53.949,9.8254 L43.822,9.8254 L43.822,25.2994 Z"/><path id="Fill-28" fill="#0C1423" d="M45.021,39.7134 L52.75,39.7134 L52.75,25.2984 L45.021,25.2984 L45.021,39.7134 Z M43.822,40.9144 L53.949,40.9144 L53.949,24.0994 L43.822,24.0994 L43.822,40.9144 Z"/><path id="Fill-29" fill="#0C1423" d="M53.949,39.7134 L60.39,39.7134 L60.39,25.2984 L53.949,25.2984 L53.949,39.7134 Z M52.75,40.9144 L61.59,40.9144 L61.59,24.0994 L52.75,24.0994 L52.75,40.9144 Z"/><path id="Fill-30" fill="#0C1423" d="M61.59,39.7134 L68.031,39.7134 L68.031,25.2984 L61.59,25.2984 L61.59,39.7134 Z M60.39,40.9144 L69.23,40.9144 L69.23,24.0994 L60.39,24.0994 L60.39,40.9144 Z"/><path id="Fill-31" fill="#0C1423" d="M69.23,39.7134 L75.671,39.7134 L75.671,25.2984 L69.23,25.2984 L69.23,39.7134 Z M68.031,40.9144 L76.871,40.9144 L76.871,24.0994 L68.031,24.0994 L68.031,40.9144 Z"/><polygon id="Fill-32" fill="#0C1423" points="48.286 32.671 49.485 32.671 49.485 29.069 48.286 29.069"/><polygon id="Fill-33" fill="#0C1423" points="48.286 37.498 49.485 37.498 49.485 33.895 48.286 33.895"/><polygon id="Fill-34" fill="#0C1423" points="48.286 21.864 49.485 21.864 49.485 18.261 48.286 18.261"/><polygon id="Fill-35" fill="#0C1423" points="56.571 32.671 57.77 32.671 57.77 29.069 56.571 29.069"/><polygon id="Fill-36" fill="#0C1423" points="56.571 37.498 57.77 37.498 57.77 33.895 56.571 33.895"/><polygon id="Fill-37" fill="#0C1423" points="64.211 32.671 65.41 32.671 65.41 29.069 64.211 29.069"/><polygon id="Fill-38" fill="#0C1423" points="64.211 37.498 65.41 37.498 65.41 33.895 64.211 33.895"/><polygon id="Fill-39" fill="#0C1423" points="71.852 32.671 73.051 32.671 73.051 29.069 71.852 29.069"/><polygon id="Fill-40" fill="#0C1423" points="71.852 37.498 73.051 37.498 73.051 33.895 71.852 33.895"/><path id="Fill-41" fill="#0C1423" d="M69.23,24.0994 L75.671,24.0994 L75.671,19.7164 L69.23,19.7164 L69.23,24.0994 Z M68.031,25.2994 L76.871,25.2994 L76.871,18.5154 L68.031,18.5154 L68.031,25.2994 Z"/><path id="Fill-42" fill="#0C1423" d="M61.59,24.0994 L68.031,24.0994 L68.031,19.7164 L61.59,19.7164 L61.59,24.0994 Z M60.39,25.2994 L69.23,25.2994 L69.23,18.5154 L60.39,18.5154 L60.39,25.2994 Z"/><path id="Fill-43" fill="#0C1423" d="M53.949,24.0994 L60.39,24.0994 L60.39,19.7164 L53.949,19.7164 L53.949,24.0994 Z M52.75,25.2994 L61.59,25.2994 L61.59,18.5154 L52.75,18.5154 L52.75,25.2994 Z"/><polygon id="Fill-44" fill="#0C1423" points="44.422 15.897 53.35 15.897 53.35 14.697 44.422 14.697"/><polygon id="Fill-45" fill="#0C1423" points="32.449 15.897 44.357 15.897 44.357 14.697 32.449 14.697"/><polygon id="Fill-46" fill="#0C1423" points="37.836 10.425 39.035 10.425 39.035 .6 37.836 .6"/><path id="Fill-47" fill="#0C1423" d="M37.836,4.8744 L45.022,4.8744 L45.022,0.0004 L37.836,0.0004 L37.836,4.8744 Z M39.035,3.6744 L43.822,3.6744 L43.822,1.2004 L39.035,1.2004 L39.035,3.6744 Z"/><path id="Fill-48" fill="#0C1423" d="M36.1504,39.7139 L40.7284,39.7139 L40.7284,30.9069 C40.7284,29.6449 39.7014,28.6189 38.4394,28.6189 C37.1774,28.6189 36.1504,29.6449 36.1504,30.9069 L36.1504,39.7139 Z M41.9274,40.9139 L34.9514,40.9139 L34.9514,30.9069 C34.9514,28.9839 36.5154,27.4189 38.4394,27.4189 C40.3634,27.4189 41.9274,28.9839 41.9274,30.9069 L41.9274,40.9139 Z"/></g></g></g></svg>