<svg xmlns="http://www.w3.org/2000/svg" xmlns:xlink="http://www.w3.org/1999/xlink" width="100" height="100" version="1.1" viewBox="0 0 100 100"><title>Artboard Copy 64</title><desc>Created with Sketch.</desc><defs><polygon id="path-1" points="0 38 87.524 38 87.524 .265 0 .265"/></defs><g id="Welcome" fill="none" fill-rule="evenodd" stroke="none" stroke-width="1"><g id="Artboard-Copy-64"><g id="Page-1-Copy" transform="translate(6.000000, 31.000000)"><polygon id="Fill-1" fill="#307CBF" points="7.659 3.934 7.659 38.735 22.94 38.735 38.222 38.735 38.222 16.18 22.94 16.18 22.94 3.934"/><polygon id="Fill-2" fill="#307CBF" points="73.262 38.735 83.866 38.735 83.866 7.665 73.262 7.665"/><polygon id="Fill-3" fill="#307CBF" points="40.854 31.195 40.929 31.195 40.929 38.735 48.66 38.735 48.66 31.195 44.756 26.44"/><polygon id="Fill-4" fill="#307CBF" points="48.659 31.195 48.734 31.195 48.734 38.735 56.464 38.735 56.464 31.195 52.561 26.44"/><polygon id="Fill-5" fill="#307CBF" points="56.464 31.195 56.539 31.195 56.539 38.735 64.27 38.735 64.27 31.195 60.366 26.44"/><g id="Group-72" transform="translate(0.000000, 0.735100)"><path id="Fill-6" fill="#307CBF" d="M67.9434,29.8138 C69.9724,29.8138 71.6184,28.1688 71.6184,26.1398 C71.6184,25.3288 71.3464,24.5858 70.9024,23.9788 C71.3464,23.3708 71.6184,22.6278 71.6184,21.8168 C71.6184,19.7878 69.9724,18.1428 67.9434,18.1428 C65.9144,18.1428 64.2694,19.7878 64.2694,21.8168 C64.2694,22.6278 64.5404,23.3708 64.9844,23.9788 C64.5404,24.5858 64.2694,25.3288 64.2694,26.1398 C64.2694,28.1688 65.9144,29.8138 67.9434,29.8138 Z"/><mask id="mask-2" fill="#fff"><use xlink:href="#path-1"/></mask><path id="Fill-8" fill="#0C1423" d="M21.518,35.067 L35.6,35.067 L35.6,13.713 L21.518,13.713 L21.518,35.067 Z M20.319,36.267 L36.799,36.267 L36.799,12.512 L20.319,12.512 L20.319,36.267 Z" mask="url(#mask-2)"/><path id="Fill-10" fill="#0C1423" d="M71.839,35.067 L81.243,35.067 L81.243,5.197 L71.839,5.197 L71.839,35.067 Z M70.639,36.267 L82.442,36.267 L82.442,3.997 L70.639,3.997 L70.639,36.267 Z" mask="url(#mask-2)"/><polygon id="Fill-11" fill="#0C1423" points="0 36.267 87.524 36.267 87.524 35.067 0 35.067" mask="url(#mask-2)"/><polygon id="Fill-12" fill="#0C1423" points="47.236 36.267 38.306 36.267 38.306 28.126 39.506 28.126 39.506 35.067 46.037 35.067 46.037 28.126 47.236 28.126" mask="url(#mask-2)"/><path id="Fill-13" fill="#0C1423" d="M40.0996,27.5262 L45.3686,27.5262 L42.7336,24.3182 L40.0996,27.5262 Z M47.9056,28.7262 L37.5626,28.7262 L42.7336,22.4262 L47.9056,28.7262 Z" mask="url(#mask-2)"/><polygon id="Fill-14" fill="#0C1423" points="55.041 36.267 46.112 36.267 46.112 28.126 47.312 28.126 47.312 35.067 53.842 35.067 53.842 28.126 55.041 28.126" mask="url(#mask-2)"/><path id="Fill-15" fill="#0C1423" d="M47.9053,27.5262 L53.1733,27.5262 L50.5393,24.3182 L47.9053,27.5262 Z M55.7103,28.7262 L45.3683,28.7262 L50.5393,22.4262 L55.7103,28.7262 Z" mask="url(#mask-2)"/><polygon id="Fill-16" fill="#0C1423" points="62.847 36.267 53.917 36.267 53.917 28.126 55.117 28.126 55.117 35.067 61.648 35.067 61.648 28.126 62.847 28.126" mask="url(#mask-2)"/><path id="Fill-17" fill="#0C1423" d="M55.71,27.5262 L60.979,27.5262 L58.344,24.3182 L55.71,27.5262 Z M63.516,28.7262 L53.173,28.7262 L58.344,22.4262 L63.516,28.7262 Z" mask="url(#mask-2)"/><polygon id="Fill-18" fill="#0C1423" points="65.322 35.667 66.521 35.667 66.521 26.809 65.322 26.809" mask="url(#mask-2)"/><path id="Fill-19" fill="#0C1423" d="M65.9209,16.4095 C64.2259,16.4095 62.8469,17.7885 62.8469,19.4835 C62.8469,20.1305 63.0549,20.7545 63.4459,21.2905 L63.7049,21.6445 L63.4459,21.9985 C63.0549,22.5355 62.8469,23.1595 62.8469,23.8055 C62.8469,25.5015 64.2259,26.8805 65.9209,26.8805 C67.6159,26.8805 68.9959,25.5015 68.9959,23.8055 C68.9959,23.1605 68.7879,22.5355 68.3959,21.9985 L68.1369,21.6445 L68.3959,21.2905 C68.7879,20.7535 68.9959,20.1295 68.9959,19.4835 C68.9959,17.7885 67.6159,16.4095 65.9209,16.4095 M65.9209,28.0805 C63.5649,28.0805 61.6479,26.1625 61.6479,23.8055 C61.6479,23.0435 61.8529,22.3045 62.2429,21.6445 C61.8529,20.9855 61.6479,20.2465 61.6479,19.4835 C61.6479,17.1265 63.5649,15.2095 65.9209,15.2095 C68.2779,15.2095 70.1949,17.1265 70.1949,19.4835 C70.1949,20.2455 69.9899,20.9855 69.5989,21.6445 C69.9899,22.3055 70.1949,23.0445 70.1949,23.8055 C70.1949,26.1625 68.2779,28.0805 65.9209,28.0805" mask="url(#mask-2)"/><polygon id="Fill-20" fill="#0C1423" points="8.045 7.446 9.244 7.446 9.244 3.844 8.045 3.844" mask="url(#mask-2)"/><polygon id="Fill-21" fill="#0C1423" points="8.045 12.273 9.244 12.273 9.244 8.671 8.045 8.671" mask="url(#mask-2)"/><polygon id="Fill-22" fill="#0C1423" points="10.927 7.446 12.126 7.446 12.126 3.844 10.927 3.844" mask="url(#mask-2)"/><polygon id="Fill-23" fill="#0C1423" points="10.927 12.273 12.126 12.273 12.126 8.671 10.927 8.671" mask="url(#mask-2)"/><polygon id="Fill-24" fill="#0C1423" points="16.691 7.446 17.89 7.446 17.89 3.844 16.691 3.844" mask="url(#mask-2)"/><polygon id="Fill-25" fill="#0C1423" points="16.691 12.273 17.89 12.273 17.89 8.671 16.691 8.671" mask="url(#mask-2)"/><polygon id="Fill-26" fill="#0C1423" points="13.809 7.446 15.008 7.446 15.008 3.844 13.809 3.844" mask="url(#mask-2)"/><polygon id="Fill-27" fill="#0C1423" points="13.809 12.273 15.008 12.273 15.008 8.671 13.809 8.671" mask="url(#mask-2)"/><path id="Fill-28" fill="#0C1423" d="M6.236,35.067 L20.318,35.067 L20.318,1.465 L6.236,1.465 L6.236,35.067 Z M5.038,36.267 L21.518,36.267 L21.518,0.265 L5.038,0.265 L5.038,36.267 Z" mask="url(#mask-2)"/><polygon id="Fill-29" fill="#0C1423" points="8.045 17.719 9.244 17.719 9.244 14.117 8.045 14.117" mask="url(#mask-2)"/><polygon id="Fill-30" fill="#0C1423" points="8.045 22.546 9.244 22.546 9.244 18.944 8.045 18.944" mask="url(#mask-2)"/><polygon id="Fill-31" fill="#0C1423" points="10.927 17.719 12.126 17.719 12.126 14.117 10.927 14.117" mask="url(#mask-2)"/><polygon id="Fill-32" fill="#0C1423" points="10.927 22.546 12.126 22.546 12.126 18.944 10.927 18.944" mask="url(#mask-2)"/><polygon id="Fill-33" fill="#0C1423" points="16.691 17.719 17.89 17.719 17.89 14.117 16.691 14.117" mask="url(#mask-2)"/><polygon id="Fill-34" fill="#0C1423" points="16.691 22.546 17.89 22.546 17.89 18.944 16.691 18.944" mask="url(#mask-2)"/><polygon id="Fill-35" fill="#0C1423" points="13.809 17.719 15.008 17.719 15.008 14.117 13.809 14.117" mask="url(#mask-2)"/><polygon id="Fill-36" fill="#0C1423" points="13.809 22.546 15.008 22.546 15.008 18.944 13.809 18.944" mask="url(#mask-2)"/><polygon id="Fill-37" fill="#0C1423" points="23.637 18.84 24.836 18.84 24.836 15.238 23.637 15.238" mask="url(#mask-2)"/><polygon id="Fill-38" fill="#0C1423" points="23.637 23.667 24.836 23.667 24.836 20.064 23.637 20.064" mask="url(#mask-2)"/><polygon id="Fill-39" fill="#0C1423" points="26.519 18.84 27.718 18.84 27.718 15.238 26.519 15.238" mask="url(#mask-2)"/><polygon id="Fill-40" fill="#0C1423" points="26.519 23.667 27.718 23.667 27.718 20.064 26.519 20.064" mask="url(#mask-2)"/><polygon id="Fill-41" fill="#0C1423" points="32.282 18.84 33.481 18.84 33.481 15.238 32.282 15.238" mask="url(#mask-2)"/><polygon id="Fill-42" fill="#0C1423" points="32.282 23.667 33.481 23.667 33.481 20.064 32.282 20.064" mask="url(#mask-2)"/><polygon id="Fill-43" fill="#0C1423" points="29.401 18.84 30.6 18.84 30.6 15.238 29.401 15.238" mask="url(#mask-2)"/><polygon id="Fill-44" fill="#0C1423" points="29.401 23.667 30.6 23.667 30.6 20.064 29.401 20.064" mask="url(#mask-2)"/><polygon id="Fill-45" fill="#0C1423" points="42.172 33.679 43.371 33.679 43.371 30.077 42.172 30.077" mask="url(#mask-2)"/><polygon id="Fill-46" fill="#0C1423" points="49.978 33.679 51.177 33.679 51.177 30.077 49.978 30.077" mask="url(#mask-2)"/><polygon id="Fill-47" fill="#0C1423" points="57.782 33.679 58.981 33.679 58.981 30.077 57.782 30.077" mask="url(#mask-2)"/><polygon id="Fill-48" fill="#0C1423" points="73.139 11.048 74.338 11.048 74.338 7.445 73.139 7.445" mask="url(#mask-2)"/><polygon id="Fill-49" fill="#0C1423" points="73.139 15.875 74.338 15.875 74.338 12.272 73.139 12.272" mask="url(#mask-2)"/><polygon id="Fill-50" fill="#0C1423" points="76.021 11.048 77.22 11.048 77.22 7.445 76.021 7.445" mask="url(#mask-2)"/><polygon id="Fill-51" fill="#0C1423" points="76.021 15.875 77.22 15.875 77.22 12.272 76.021 12.272" mask="url(#mask-2)"/><polygon id="Fill-52" fill="#0C1423" points="78.903 11.048 80.102 11.048 80.102 7.445 78.903 7.445" mask="url(#mask-2)"/><polygon id="Fill-53" fill="#0C1423" points="78.903 15.875 80.102 15.875 80.102 12.272 78.903 12.272" mask="url(#mask-2)"/><polygon id="Fill-54" fill="#0C1423" points="73.139 21.033 74.338 21.033 74.338 17.431 73.139 17.431" mask="url(#mask-2)"/><polygon id="Fill-55" fill="#0C1423" points="73.139 25.86 74.338 25.86 74.338 22.258 73.139 22.258" mask="url(#mask-2)"/><polygon id="Fill-56" fill="#0C1423" points="76.021 21.033 77.22 21.033 77.22 17.431 76.021 17.431" mask="url(#mask-2)"/><polygon id="Fill-57" fill="#0C1423" points="76.021 25.86 77.22 25.86 77.22 22.258 76.021 22.258" mask="url(#mask-2)"/><polygon id="Fill-58" fill="#0C1423" points="78.903 21.033 80.102 21.033 80.102 17.431 78.903 17.431" mask="url(#mask-2)"/><polygon id="Fill-59" fill="#0C1423" points="78.903 25.86 80.102 25.86 80.102 22.258 78.903 22.258" mask="url(#mask-2)"/><polygon id="Fill-60" fill="#0C1423" points="23.637 28.714 24.836 28.714 24.836 25.112 23.637 25.112" mask="url(#mask-2)"/><polygon id="Fill-61" fill="#0C1423" points="26.519 28.714 27.718 28.714 27.718 25.112 26.519 25.112" mask="url(#mask-2)"/><polygon id="Fill-62" fill="#0C1423" points="32.282 28.714 33.481 28.714 33.481 25.112 32.282 25.112" mask="url(#mask-2)"/><polygon id="Fill-63" fill="#0C1423" points="29.401 28.714 30.6 28.714 30.6 25.112 29.401 25.112" mask="url(#mask-2)"/><polygon id="Fill-64" fill="#0C1423" points="8.045 27.992 9.244 27.992 9.244 24.39 8.045 24.39" mask="url(#mask-2)"/><polygon id="Fill-65" fill="#0C1423" points="8.045 32.819 9.244 32.819 9.244 29.217 8.045 29.217" mask="url(#mask-2)"/><polygon id="Fill-66" fill="#0C1423" points="10.927 27.992 12.126 27.992 12.126 24.39 10.927 24.39" mask="url(#mask-2)"/><polygon id="Fill-67" fill="#0C1423" points="10.927 32.819 12.126 32.819 12.126 29.217 10.927 29.217" mask="url(#mask-2)"/><polygon id="Fill-68" fill="#0C1423" points="16.691 27.992 17.89 27.992 17.89 24.39 16.691 24.39" mask="url(#mask-2)"/><polygon id="Fill-69" fill="#0C1423" points="16.691 32.819 17.89 32.819 17.89 29.217 16.691 29.217" mask="url(#mask-2)"/><polygon id="Fill-70" fill="#0C1423" points="13.809 27.992 15.008 27.992 15.008 24.39 13.809 24.39" mask="url(#mask-2)"/><polygon id="Fill-71" fill="#0C1423" points="13.809 32.819 15.008 32.819 15.008 29.217 13.809 29.217" mask="url(#mask-2)"/></g></g></g></g></svg>